<?xml version="1.0" encoding="UTF-8"?>
<!DOCTYPE svg PUBLIC "-//W3C//DTD SVG 1.1//EN" "http://www.w3.org/Graphics/SVG/1.1/DTD/svg11.dtd">
<svg xmlns="http://www.w3.org/2000/svg" version="1.1" width="3000px" height="2214px" style="shape-rendering:geometricPrecision; text-rendering:geometricPrecision; image-rendering:optimizeQuality; fill-rule:evenodd; clip-rule:evenodd" xmlns:xlink="http://www.w3.org/1999/xlink">
<g><path style="opacity:0.991" fill="#000000" d="M 1482.5,556.5 C 1604.91,554.102 1705.75,599.102 1785,691.5C 1808.03,719.886 1826.2,751.219 1839.5,785.5C 1789.5,785.5 1739.5,785.5 1689.5,785.5C 1681.51,829.779 1673.84,874.112 1666.5,918.5C 1733.17,918.5 1799.83,918.5 1866.5,918.5C 1866.13,1027.37 1826.79,1119.21 1748.5,1194C 1699.61,1238.45 1642.61,1267.62 1577.5,1281.5C 1606.28,1116.13 1635.28,950.794 1664.5,785.5C 1496.5,785.833 1328.5,785.5 1160.5,784.5C 1211.34,668.51 1298.34,595.343 1421.5,565C 1441.79,560.758 1462.12,557.924 1482.5,556.5 Z"/></g>
<g><path style="opacity:0.993" fill="#000000" d="M 1133.5,918.5 C 1257.5,918.5 1381.5,918.5 1505.5,918.5C 1484.27,1038.81 1463.11,1159.14 1442,1279.5C 1441.96,1281.94 1441.13,1283.94 1439.5,1285.5C 1313.26,1260.83 1222.09,1190.83 1166,1075.5C 1143.58,1025.59 1132.75,973.252 1133.5,918.5 Z"/></g>
<g><path style="opacity:0.927" fill="#060605" d="M 1090.5,1472.5 C 1098.5,1472.5 1106.5,1472.5 1114.5,1472.5C 1114.5,1483.83 1114.5,1495.17 1114.5,1506.5C 1106.5,1506.5 1098.5,1506.5 1090.5,1506.5C 1090.5,1495.17 1090.5,1483.83 1090.5,1472.5 Z"/></g>
<g><path style="opacity:0.967" fill="#060605" d="M 1926.5,1472.5 C 1934.17,1472.5 1941.83,1472.5 1949.5,1472.5C 1949.5,1483.83 1949.5,1495.17 1949.5,1506.5C 1941.83,1506.5 1934.17,1506.5 1926.5,1506.5C 1926.5,1495.17 1926.5,1483.83 1926.5,1472.5 Z"/></g>
<g><path style="opacity:0.935" fill="#060605" d="M 665.5,1474.5 C 728.833,1474.5 792.167,1474.5 855.5,1474.5C 855.5,1481.83 855.5,1489.17 855.5,1496.5C 827.833,1496.5 800.167,1496.5 772.5,1496.5C 772.5,1560.83 772.5,1625.17 772.5,1689.5C 764.5,1689.5 756.5,1689.5 748.5,1689.5C 748.5,1625.17 748.5,1560.83 748.5,1496.5C 720.833,1496.5 693.167,1496.5 665.5,1496.5C 665.5,1489.17 665.5,1481.83 665.5,1474.5 Z"/></g>
<g><path style="opacity:0.945" fill="#060605" d="M 1835.5,1483.5 C 1843.5,1483.5 1851.5,1483.5 1859.5,1483.5C 1859.5,1499.83 1859.5,1516.17 1859.5,1532.5C 1873.83,1532.5 1888.17,1532.5 1902.5,1532.5C 1902.5,1538.5 1902.5,1544.5 1902.5,1550.5C 1888.17,1550.5 1873.83,1550.5 1859.5,1550.5C 1859.33,1586.83 1859.5,1623.17 1860,1659.5C 1861.7,1665.86 1865.87,1669.36 1872.5,1670C 1882.27,1670.95 1891.94,1670.45 1901.5,1668.5C 1902.5,1675.13 1902.83,1681.8 1902.5,1688.5C 1887.45,1690.98 1872.45,1690.81 1857.5,1688C 1843.02,1683.16 1835.85,1672.99 1836,1657.5C 1835.5,1621.5 1835.33,1585.5 1835.5,1549.5C 1824.17,1549.5 1812.83,1549.5 1801.5,1549.5C 1801.5,1543.83 1801.5,1538.17 1801.5,1532.5C 1812.83,1532.5 1824.17,1532.5 1835.5,1532.5C 1835.5,1516.17 1835.5,1499.83 1835.5,1483.5 Z"/></g>
<g><path style="opacity:0.972" fill="#060605" d="M 1221.5,1528.5 C 1237.9,1527.15 1253.9,1528.99 1269.5,1534C 1288.74,1542.94 1299.24,1558.1 1301,1579.5C 1301.5,1616.17 1301.67,1652.83 1301.5,1689.5C 1293.83,1689.5 1286.17,1689.5 1278.5,1689.5C 1278.96,1651.47 1278.46,1613.47 1277,1575.5C 1273.31,1560.47 1263.81,1551.64 1248.5,1549C 1230.2,1545.66 1212.54,1547.66 1195.5,1555C 1180.03,1564.43 1171.53,1578.26 1170,1596.5C 1169.5,1627.5 1169.33,1658.5 1169.5,1689.5C 1161.83,1689.5 1154.17,1689.5 1146.5,1689.5C 1146.5,1637.17 1146.5,1584.83 1146.5,1532.5C 1154.17,1532.5 1161.83,1532.5 1169.5,1532.5C 1169.33,1542.17 1169.5,1551.84 1170,1561.5C 1181.9,1542.3 1199.06,1531.3 1221.5,1528.5 Z"/></g>
<g><path style="opacity:0.963" fill="#060605" d="M 1406.5,1528.5 C 1421.61,1527.14 1436.28,1528.97 1450.5,1534C 1462.15,1539.64 1470.31,1548.48 1475,1560.5C 1493.62,1534.79 1518.79,1524.29 1550.5,1529C 1571.87,1530.58 1587.37,1540.75 1597,1559.5C 1598.95,1563.98 1600.29,1568.65 1601,1573.5C 1601.5,1612.17 1601.67,1650.83 1601.5,1689.5C 1593.83,1689.5 1586.17,1689.5 1578.5,1689.5C 1578.67,1653.83 1578.5,1618.17 1578,1582.5C 1575.87,1564.04 1565.7,1552.87 1547.5,1549C 1526.63,1544.4 1508.13,1548.9 1492,1562.5C 1486.02,1569.77 1482.35,1578.11 1481,1587.5C 1480.5,1621.17 1480.33,1654.83 1480.5,1688.5C 1472.5,1688.5 1464.5,1688.5 1456.5,1688.5C 1456.67,1650.5 1456.5,1612.5 1456,1574.5C 1452.19,1561.36 1443.69,1552.86 1430.5,1549C 1413.06,1544.63 1396.39,1546.63 1380.5,1555C 1365.16,1566.19 1357.66,1581.36 1358,1600.5C 1357.5,1629.83 1357.33,1659.16 1357.5,1688.5C 1349.83,1688.5 1342.17,1688.5 1334.5,1688.5C 1334.5,1636.5 1334.5,1584.5 1334.5,1532.5C 1342.17,1532.5 1349.83,1532.5 1357.5,1532.5C 1357.33,1542.17 1357.5,1551.84 1358,1561.5C 1368.91,1542.76 1385.07,1531.76 1406.5,1528.5 Z"/></g>
<g><path style="opacity:0.958" fill="#060605" d="M 1695.5,1528.5 C 1719.51,1525.76 1742.17,1529.93 1763.5,1541C 1788.18,1557.77 1800.51,1581.27 1800.5,1611.5C 1798.46,1657.04 1775.13,1684.2 1730.5,1693C 1703.38,1697.59 1678.04,1692.93 1654.5,1679C 1629.12,1658.22 1618.62,1631.38 1623,1598.5C 1630,1557.33 1654.17,1534 1695.5,1528.5 Z M 1702.5,1547.5 C 1726.86,1545.23 1747.36,1552.89 1764,1570.5C 1777.44,1591.46 1780.11,1613.79 1772,1637.5C 1762.89,1658.27 1747.05,1670.43 1724.5,1674C 1702.18,1677.73 1682.18,1672.73 1664.5,1659C 1648.2,1641.23 1642.37,1620.39 1647,1596.5C 1654.13,1567.2 1672.63,1550.86 1702.5,1547.5 Z"/></g>
<g><path style="opacity:0.957" fill="#060605" d="M 2049.5,1528.5 C 2072.66,1525.97 2094.66,1529.8 2115.5,1540C 2144.54,1559.72 2157.04,1587.22 2153,1622.5C 2145.78,1666.38 2119.95,1690.22 2075.5,1694C 2049.99,1696.79 2026.66,1691.12 2005.5,1677C 1983.37,1657.65 1973.54,1633.15 1976,1603.5C 1981.5,1559.83 2006,1534.83 2049.5,1528.5 Z M 2056.5,1547.5 C 2111.52,1547.68 2135.35,1575.01 2128,1629.5C 2120.56,1654.93 2103.73,1669.77 2077.5,1674C 2052.31,1678.16 2030.81,1671.32 2013,1653.5C 2000.44,1635.69 1996.44,1616.03 2001,1594.5C 2008.99,1566.34 2027.49,1550.67 2056.5,1547.5 Z"/></g>
<g><path style="opacity:0.947" fill="#060605" d="M 2255.5,1528.5 C 2264.84,1528.33 2274.17,1528.5 2283.5,1529C 2315.93,1532.77 2333.43,1550.93 2336,1583.5C 2336.5,1618.83 2336.67,1654.17 2336.5,1689.5C 2328.5,1689.5 2320.5,1689.5 2312.5,1689.5C 2312.97,1650.79 2312.47,1612.13 2311,1573.5C 2306.55,1560.05 2297.38,1551.88 2283.5,1549C 2266.81,1546.13 2250.48,1547.46 2234.5,1553C 2217.51,1560.8 2207.68,1573.96 2205,1592.5C 2204.5,1624.83 2204.33,1657.16 2204.5,1689.5C 2196.5,1689.5 2188.5,1689.5 2180.5,1689.5C 2180.5,1637.17 2180.5,1584.83 2180.5,1532.5C 2188.5,1532.5 2196.5,1532.5 2204.5,1532.5C 2204.33,1541.84 2204.5,1551.17 2205,1560.5C 2212.71,1548.46 2223.21,1539.63 2236.5,1534C 2242.84,1531.71 2249.17,1529.88 2255.5,1528.5 Z"/></g>
<g><path style="opacity:0.96" fill="#060605" d="M 809.5,1533.5 C 818.085,1533.18 826.585,1533.52 835,1534.5C 850.297,1575.75 866.13,1616.75 882.5,1657.5C 898.095,1616.55 913.595,1575.55 929,1534.5C 937.415,1533.52 945.915,1533.18 954.5,1533.5C 969.636,1575.07 985.47,1616.4 1002,1657.5C 1018.17,1616.5 1034.33,1575.5 1050.5,1534.5C 1059.15,1533.33 1067.81,1533.17 1076.5,1534C 1055.28,1584.99 1034.45,1636.16 1014,1687.5C 1009.75,1688.8 1005.25,1689.47 1000.5,1689.5C 995.746,1689.47 991.246,1688.8 987,1687.5C 972.197,1647.42 957.197,1607.42 942,1567.5C 926.408,1607.69 911.074,1648.03 896,1688.5C 887.579,1689.65 879.079,1689.82 870.5,1689C 849.671,1637.35 829.338,1585.51 809.5,1533.5 Z"/></g>
<g><path style="opacity:0.945" fill="#060605" d="M 1090.5,1533.5 C 1098.5,1533.5 1106.5,1533.5 1114.5,1533.5C 1114.5,1585.5 1114.5,1637.5 1114.5,1689.5C 1106.5,1689.5 1098.5,1689.5 1090.5,1689.5C 1090.5,1637.5 1090.5,1585.5 1090.5,1533.5 Z"/></g>
<g><path style="opacity:0.986" fill="#060605" d="M 1926.5,1533.5 C 1934.17,1533.5 1941.83,1533.5 1949.5,1533.5C 1949.5,1585.5 1949.5,1637.5 1949.5,1689.5C 1941.83,1689.5 1934.17,1689.5 1926.5,1689.5C 1926.5,1637.5 1926.5,1585.5 1926.5,1533.5 Z"/></g>
</svg>
